<?xml version="1.0" encoding="UTF-8"?>
<!DOCTYPE svg PUBLIC "-//W3C//DTD SVG 1.1//EN" "http://www.w3.org/Graphics/SVG/1.1/DTD/svg11.dtd">
<svg xmlns="http://www.w3.org/2000/svg" version="1.1" width="507px" height="380px" style="shape-rendering:geometricPrecision; text-rendering:geometricPrecision; image-rendering:optimizeQuality; fill-rule:evenodd; clip-rule:evenodd" xmlns:xlink="http://www.w3.org/1999/xlink">
<g><path style="opacity:0.392" fill="#69bfd6" d="M 229.5,63.5 C 229.598,65.5529 228.931,67.2196 227.5,68.5C 227.402,66.4471 228.069,64.7804 229.5,63.5 Z"/></g>
<g><path style="opacity:0.745" fill="#6ba5c6" d="M 344.5,66.5 C 347.636,66.6031 350.302,67.6031 352.5,69.5C 349.514,69.0972 346.848,68.0972 344.5,66.5 Z"/></g>
<g><path style="opacity:1" fill="#140971" d="M 344.5,66.5 C 346.848,68.0972 349.514,69.0972 352.5,69.5C 353.791,69.2627 354.791,69.596 355.5,70.5C 356.918,72.3079 358.918,72.9746 361.5,72.5C 365.164,75.8306 369.498,77.8306 374.5,78.5C 380.042,80.6983 385.375,83.365 390.5,86.5C 390.973,87.9063 391.973,88.573 393.5,88.5C 400.413,92.0783 407.08,96.0783 413.5,100.5C 415.292,102.569 417.626,103.903 420.5,104.5C 422.138,105.159 423.805,105.826 425.5,106.5C 431.613,104.439 437.946,103.105 444.5,102.5C 446.527,102.662 448.527,102.495 450.5,102C 453.084,101.14 455.417,99.9731 457.5,98.5C 459.579,98.0293 461.579,97.3627 463.5,96.5C 465.857,96.6633 468.19,96.4966 470.5,96C 471.337,94.9887 471.67,93.8221 471.5,92.5C 475.452,91.7279 479.452,91.3946 483.5,91.5C 484.167,93.5 485.5,94.8333 487.5,95.5C 488.997,97.2897 489.664,99.4563 489.5,102C 489.299,105.723 488.633,109.223 487.5,112.5C 486.326,113.514 485.66,114.847 485.5,116.5C 494.411,115.038 499.411,119.038 500.5,128.5C 500.493,132.565 498.993,135.898 496,138.5C 493.743,144.011 491.243,149.344 488.5,154.5C 487.25,154.577 486.417,155.244 486,156.5C 484.665,160.752 483.831,165.086 483.5,169.5C 479.021,202 473.855,234.333 468,266.5C 465.555,276.244 461.889,285.578 457,294.5C 449.518,305.319 439.685,313.152 427.5,318C 417.077,320.01 406.577,321.51 396,322.5C 373.808,321.214 352.308,317.214 331.5,310.5C 329.898,308.926 327.898,308.259 325.5,308.5C 316.808,306.001 308.142,303.167 299.5,300C 283.082,293.449 266.749,286.949 250.5,280.5C 261.004,278.731 261.004,277.231 250.5,276C 249.663,274.989 249.33,273.822 249.5,272.5C 263.681,279.393 278.348,284.727 293.5,288.5C 301.136,293.312 309.47,296.645 318.5,298.5C 319.635,300.213 321.302,300.88 323.5,300.5C 332.641,303.864 341.975,306.531 351.5,308.5C 353.279,310.344 355.612,311.01 358.5,310.5C 359.5,310.5 360.5,310.5 361.5,310.5C 363.438,312.163 365.772,312.829 368.5,312.5C 383.093,314.683 397.76,315.016 412.5,313.5C 419.081,312.587 425.414,310.92 431.5,308.5C 443.794,301.707 452.294,291.707 457,278.5C 457.495,276.527 457.662,274.527 457.5,272.5C 458.674,271.486 459.34,270.153 459.5,268.5C 461.074,266.898 461.741,264.898 461.5,262.5C 464.821,246.575 467.488,230.575 469.5,214.5C 471.136,210.79 471.802,206.79 471.5,202.5C 472.658,183.869 476.491,165.869 483,148.5C 485.446,144.606 487.612,140.606 489.5,136.5C 492.66,133.226 493.993,129.226 493.5,124.5C 485.622,123.138 478.956,125.138 473.5,130.5C 472.022,130.762 470.689,130.429 469.5,129.5C 471.616,127.6 472.949,125.267 473.5,122.5C 477.582,118.011 480.416,112.678 482,106.5C 482.818,103.773 482.652,101.106 481.5,98.5C 480.532,97.5109 479.365,96.8443 478,96.5C 461.808,104.678 444.641,110.011 426.5,112.5C 422.84,112.759 419.507,111.925 416.5,110C 400.781,100.475 384.781,91.4746 368.5,83C 348.209,74.3445 327.209,68.3445 305.5,65C 289.546,63.758 273.879,65.258 258.5,69.5C 252.103,72.0317 246.103,75.0317 240.5,78.5C 234.296,81.0413 229.296,85.0413 225.5,90.5C 221.209,93.4576 217.542,97.1243 214.5,101.5C 223.155,104.665 231.822,107.832 240.5,111C 243.672,112.697 246.672,114.53 249.5,116.5C 248.325,116.281 247.325,116.614 246.5,117.5C 248.822,118.936 249.489,120.77 248.5,123C 249.905,124.269 251.571,124.769 253.5,124.5C 253.5,125.833 253.5,127.167 253.5,128.5C 240.195,118.183 225.195,111.683 208.5,109C 196.487,124.688 185.654,141.188 176,158.5C 175.51,159.793 175.343,161.127 175.5,162.5C 173.824,163.183 173.157,164.517 173.5,166.5C 171.049,170.068 169.049,174.068 167.5,178.5C 168.5,180.5 169.5,182.5 170.5,184.5C 171.265,185.612 172.265,186.279 173.5,186.5C 175.865,191.196 179.532,194.529 184.5,196.5C 193.24,203.572 203.24,206.072 214.5,204C 229.14,201.597 241.64,195.097 252,184.5C 247.215,173.355 239.715,164.189 229.5,157C 227.913,156.138 226.246,155.471 224.5,155C 218.229,154.732 212.062,154.566 206,154.5C 208.453,145.094 214.62,141.26 224.5,143C 231.477,145.972 237.31,150.472 242,156.5C 247.002,163.17 251.502,170.17 255.5,177.5C 256.365,178.583 257.365,178.749 258.5,178C 259.163,176.482 260.163,175.315 261.5,174.5C 261.461,175.583 261.127,176.583 260.5,177.5C 261.167,178.167 261.833,178.833 262.5,179.5C 259.788,180.228 257.121,181.061 254.5,182C 257.471,184.384 260.471,186.55 263.5,188.5C 259.364,190.986 255.364,193.653 251.5,196.5C 249.692,197.918 249.025,199.918 249.5,202.5C 250.378,205.056 251.711,207.39 253.5,209.5C 262.367,215.343 272.033,219.01 282.5,220.5C 285.988,220.858 288.988,219.858 291.5,217.5C 292.735,215.684 292.735,214.017 291.5,212.5C 288.281,207.396 285.615,202.063 283.5,196.5C 280.744,190.781 276.078,188.114 269.5,188.5C 272.167,186.5 274.833,184.5 277.5,182.5C 282.127,184.407 285.96,187.407 289,191.5C 289.122,189.718 288.622,188.052 287.5,186.5C 288.735,186.279 289.735,185.612 290.5,184.5C 290.5,186.167 290.5,187.833 290.5,189.5C 291.087,192.406 292.754,194.072 295.5,194.5C 295.238,195.978 295.571,197.311 296.5,198.5C 297.541,196.009 298.374,196.009 299,198.5C 299.172,203.202 299.672,207.868 300.5,212.5C 301.167,209.023 301.834,205.689 302.5,202.5C 300.513,229.36 310.846,249.86 333.5,264C 373.04,280.211 403.04,269.711 423.5,232.5C 424.12,234.977 425.12,234.977 426.5,232.5C 426.833,232.833 427.167,233.167 427.5,233.5C 425.469,235.249 425.135,237.249 426.5,239.5C 422.665,240.996 422.665,241.996 426.5,242.5C 404.157,278.004 373.157,288.504 333.5,274C 314.175,263.827 302.175,247.993 297.5,226.5C 297.291,225.078 296.791,223.745 296,222.5C 291.54,225.65 286.54,226.984 281,226.5C 265.886,225.444 253.553,219.11 244,207.5C 243.517,206.552 243.351,205.552 243.5,204.5C 241.585,204.216 239.919,204.549 238.5,205.5C 228.367,210.19 217.701,212.523 206.5,212.5C 194.846,209.83 184.512,204.497 175.5,196.5C 172.08,193.749 169.413,190.416 167.5,186.5C 167.5,185.167 167.5,183.833 167.5,182.5C 165.801,182.66 164.134,182.494 162.5,182C 163.517,180.951 163.684,179.784 163,178.5C 162.158,182.718 160.992,186.718 159.5,190.5C 159.356,186.625 159.69,182.792 160.5,179C 156.321,168.773 155.821,158.273 159,147.5C 161.838,137.988 164.671,128.488 167.5,119C 166.389,113.84 165.389,108.673 164.5,103.5C 164.507,101.631 164.84,99.964 165.5,98.5C 167.134,97.7934 168.468,96.6268 169.5,95C 172.482,94.502 175.482,94.3354 178.5,94.5C 181.01,94.0535 183.01,94.7202 184.5,96.5C 184.369,97.3764 184.702,98.0431 185.5,98.5C 187.642,99.6005 189.808,100.601 192,101.5C 197.78,100.853 203.613,100.186 209.5,99.5C 211.289,97.3896 212.622,95.0563 213.5,92.5C 213.932,91.2905 214.599,90.2905 215.5,89.5C 216.906,89.0269 217.573,88.0269 217.5,86.5C 218.906,86.0269 219.573,85.0269 219.5,83.5C 220.906,83.0269 221.573,82.0269 221.5,80.5C 223.309,76.4073 225.309,72.4073 227.5,68.5C 228.931,67.2196 229.598,65.5529 229.5,63.5C 232.898,52.7039 235.732,41.7039 238,30.5C 244.099,22.5215 250.099,22.5215 256,30.5C 258.904,26.3667 261.571,22.0333 264,17.5C 271.624,10.2707 277.958,11.2707 283,20.5C 288.735,32.8779 293.568,45.5446 297.5,58.5C 313.713,58.8144 329.38,61.4811 344.5,66.5 Z M 201.5,107.5 C 193.451,118.219 185.784,129.219 178.5,140.5C 176.75,141.659 175.75,143.326 175.5,145.5C 170.362,152.779 166.529,160.779 164,169.5C 162.455,164.953 162.121,160.287 163,155.5C 164.276,151.177 165.442,146.844 166.5,142.5C 167.738,140.786 168.405,138.786 168.5,136.5C 171.283,128.83 174.283,121.163 177.5,113.5C 179.148,111.571 180.815,109.571 182.5,107.5C 188.013,105.55 193.68,105.05 199.5,106C 200.416,106.278 201.082,106.778 201.5,107.5 Z"/></g>
<g><path style="opacity:1" fill="#582d43" d="M 276.5,58.5 C 274.898,60.0739 272.898,60.7406 270.5,60.5C 271.99,58.7202 273.99,58.0535 276.5,58.5 Z"/></g>
<g><path style="opacity:1" fill="#ab5733" d="M 266.5,26.5 C 269.044,26.1043 271.211,26.771 273,28.5C 277.686,38.1991 281.519,48.1991 284.5,58.5C 281.833,58.5 279.167,58.5 276.5,58.5C 273.99,58.0535 271.99,58.7202 270.5,60.5C 257.818,61.7593 245.651,66.426 234,74.5C 233.5,74.1667 233,73.8333 232.5,73.5C 237.847,63.1076 240.847,52.1076 241.5,40.5C 247.105,40.9252 252.105,42.9252 256.5,46.5C 257.467,47.8062 258.801,48.4729 260.5,48.5C 260.966,40.6245 262.966,33.2912 266.5,26.5 Z"/></g>
<g><path style="opacity:1" fill="#c08672" d="M 256.5,46.5 C 252.105,42.9252 247.105,40.9252 241.5,40.5C 242.194,31.3118 245.86,29.6451 252.5,35.5C 254.6,38.9057 255.933,42.5724 256.5,46.5 Z"/></g>
<g><path style="opacity:1" fill="#c2866f" d="M 284.5,58.5 C 281.519,48.1991 277.686,38.1991 273,28.5C 271.211,26.771 269.044,26.1043 266.5,26.5C 267.844,21.2841 271.011,19.2841 276,20.5C 281.289,32.6597 286.123,44.993 290.5,57.5C 288.604,58.4656 286.604,58.7989 284.5,58.5 Z"/></g>
<g><path style="opacity:1" fill="#4d61a3" d="M 355.5,70.5 C 357.786,70.595 359.786,71.2616 361.5,72.5C 358.918,72.9746 356.918,72.3079 355.5,70.5 Z"/></g>
<g><path style="opacity:0.008" fill="#00045f" d="M 425.5,77.5 C 425.897,76.475 426.563,76.3083 427.5,77C 426.906,77.4643 426.239,77.631 425.5,77.5 Z"/></g>
<g><path style="opacity:1" fill="#465997" d="M 361.5,72.5 C 366.251,73.7105 370.584,75.7105 374.5,78.5C 369.498,77.8306 365.164,75.8306 361.5,72.5 Z"/></g>
<g><path style="opacity:0.004" fill="#000053" d="M 410.5,77.5 C 411.833,78.1667 411.833,78.1667 410.5,77.5 Z"/></g>
<g><path style="opacity:0.008" fill="#0d0671" d="M 425.5,77.5 C 421.354,78.647 417.02,78.8136 412.5,78C 416.821,77.501 421.154,77.3343 425.5,77.5 Z"/></g>
<g><path style="opacity:0.024" fill="#a5edfe" d="M 410.5,78.5 C 410.103,79.525 409.437,79.6917 408.5,79C 409.094,78.5357 409.761,78.369 410.5,78.5 Z"/></g>
<g><path style="opacity:0.867" fill="#5795ac" d="M 221.5,80.5 C 221.573,82.0269 220.906,83.0269 219.5,83.5C 219.427,81.9731 220.094,80.9731 221.5,80.5 Z"/></g>
<g><path style="opacity:0.388" fill="#7bbfe3" d="M 219.5,83.5 C 219.573,85.0269 218.906,86.0269 217.5,86.5C 217.427,84.9731 218.094,83.9731 219.5,83.5 Z"/></g>
<g><path style="opacity:0.714" fill="#7dc6db" d="M 217.5,86.5 C 217.573,88.0269 216.906,89.0269 215.5,89.5C 215.427,87.9731 216.094,86.9731 217.5,86.5 Z"/></g>
<g><path style="opacity:0.29" fill="#80b6c8" d="M 390.5,86.5 C 392.027,86.427 393.027,87.0937 393.5,88.5C 391.973,88.573 390.973,87.9063 390.5,86.5 Z"/></g>
<g><path style="opacity:0.855" fill="#5d769f" d="M 483.5,91.5 C 485.833,91.8333 487.167,93.1667 487.5,95.5C 487.167,93.1667 485.833,91.8333 483.5,91.5 Z"/></g>
<g><path style="opacity:1" fill="#333382" d="M 483.5,91.5 C 479.452,91.3946 475.452,91.7279 471.5,92.5C 471.67,93.8221 471.337,94.9887 470.5,96C 468.19,96.4966 465.857,96.6633 463.5,96.5C 463.5,96.1667 463.5,95.8333 463.5,95.5C 466.589,94.2611 469.589,92.7611 472.5,91C 476.358,90.1901 480.024,90.3567 483.5,91.5 Z"/></g>
<g><path style="opacity:0.969" fill="#40669b" d="M 178.5,94.5 C 175.482,94.3354 172.482,94.502 169.5,95C 168.468,96.6268 167.134,97.7934 165.5,98.5C 168.369,92.3209 172.703,90.9876 178.5,94.5 Z"/></g>
<g><path style="opacity:1" fill="#7394bd" d="M 463.5,95.5 C 463.5,95.8333 463.5,96.1667 463.5,96.5C 461.579,97.3627 459.579,98.0293 457.5,98.5C 459.033,96.7549 461.033,95.7549 463.5,95.5 Z"/></g>
<g><path style="opacity:1" fill="#1d2076" d="M 213.5,92.5 C 212.622,95.0563 211.289,97.3896 209.5,99.5C 203.613,100.186 197.78,100.853 192,101.5C 189.808,100.601 187.642,99.6005 185.5,98.5C 184.702,98.0431 184.369,97.3764 184.5,96.5C 192.096,98.0533 199.763,98.8866 207.5,99C 208.998,96.3363 210.998,94.1696 213.5,92.5 Z"/></g>
<g><path style="opacity:1" fill="#c3876f" d="M 473.5,122.5 C 473.498,120.169 474.331,118.169 476,116.5C 476.498,113.183 476.665,109.85 476.5,106.5C 472.797,105.17 469.13,105.336 465.5,107C 450.4,113.808 434.566,118.641 418,121.5C 400.782,112.14 383.615,102.64 366.5,93C 333.842,77.8341 299.509,71.1674 263.5,73C 255.716,74.7862 248.05,76.6195 240.5,78.5C 246.103,75.0317 252.103,72.0317 258.5,69.5C 273.879,65.258 289.546,63.758 305.5,65C 327.209,68.3445 348.209,74.3445 368.5,83C 384.781,91.4746 400.781,100.475 416.5,110C 419.507,111.925 422.84,112.759 426.5,112.5C 444.641,110.011 461.808,104.678 478,96.5C 479.365,96.8443 480.532,97.5109 481.5,98.5C 482.652,101.106 482.818,103.773 482,106.5C 480.416,112.678 477.582,118.011 473.5,122.5 Z"/></g>
<g><path style="opacity:1" fill="#4f5e93" d="M 413.5,100.5 C 416.614,100.555 418.948,101.888 420.5,104.5C 417.626,103.903 415.292,102.569 413.5,100.5 Z"/></g>
<g><path style="opacity:1" fill="#343d7f" d="M 457.5,98.5 C 455.417,99.9731 453.084,101.14 450.5,102C 448.527,102.495 446.527,102.662 444.5,102.5C 448.502,100.39 452.835,99.0569 457.5,98.5 Z"/></g>
<g><path style="opacity:1" fill="#1e2077" d="M 201.5,107.5 C 201.082,106.778 200.416,106.278 199.5,106C 193.68,105.05 188.013,105.55 182.5,107.5C 180.815,109.571 179.148,111.571 177.5,113.5C 176.905,110.654 176.905,107.654 177.5,104.5C 184.318,105.001 190.985,104.335 197.5,102.5C 199.136,103.304 200.636,104.304 202,105.5C 202.692,106.437 202.525,107.103 201.5,107.5 Z"/></g>
<g><path style="opacity:1" fill="#ac5833" d="M 473.5,122.5 C 472.949,125.267 471.616,127.6 469.5,129.5C 470.689,130.429 472.022,130.762 473.5,130.5C 477.182,130.335 480.848,130.501 484.5,131C 487.421,131.752 489.087,133.585 489.5,136.5C 487.612,140.606 485.446,144.606 483,148.5C 476.491,165.869 472.658,183.869 471.5,202.5C 469.864,206.21 469.198,210.21 469.5,214.5C 467.488,230.575 464.821,246.575 461.5,262.5C 459.926,264.102 459.259,266.102 459.5,268.5C 459.34,270.153 458.674,271.486 457.5,272.5C 448.042,277.152 438.375,281.486 428.5,285.5C 414.182,286.499 399.849,286.833 385.5,286.5C 412.572,277.761 430.238,259.761 438.5,232.5C 439.812,231.855 440.812,230.855 441.5,229.5C 447,228.109 452.334,226.109 457.5,223.5C 465.651,212.895 463.651,204.728 451.5,199C 445.497,198.024 440.163,195.857 435.5,192.5C 424.723,161.224 403.389,141.058 371.5,132C 355.224,129.266 339.224,130.266 323.5,135C 308.018,137.841 295.518,133.008 286,120.5C 274.14,93.6088 253.973,83.6088 225.5,90.5C 229.296,85.0413 234.296,81.0413 240.5,78.5C 248.05,76.6195 255.716,74.7862 263.5,73C 299.509,71.1674 333.842,77.8341 366.5,93C 383.615,102.64 400.782,112.14 418,121.5C 434.566,118.641 450.4,113.808 465.5,107C 469.13,105.336 472.797,105.17 476.5,106.5C 476.665,109.85 476.498,113.183 476,116.5C 474.331,118.169 473.498,120.169 473.5,122.5 Z"/></g>
<g><path style="opacity:0.502" fill="#879fce" d="M 487.5,112.5 C 487.771,114.38 487.104,115.713 485.5,116.5C 485.66,114.847 486.326,113.514 487.5,112.5 Z"/></g>
<g><path style="opacity:1" fill="#fad0ab" d="M 435.5,192.5 C 421.668,184.532 407.668,176.698 393.5,169C 383.529,164.399 373.196,160.899 362.5,158.5C 360.485,157.076 358.152,156.41 355.5,156.5C 339.72,154.354 324.387,156.187 309.5,162C 297.962,164.398 288.628,160.898 281.5,151.5C 276.235,142.637 270.235,134.304 263.5,126.5C 259.372,122.366 254.705,119.032 249.5,116.5C 246.672,114.53 243.672,112.697 240.5,111C 231.822,107.832 223.155,104.665 214.5,101.5C 217.542,97.1243 221.209,93.4576 225.5,90.5C 253.973,83.6088 274.14,93.6088 286,120.5C 295.518,133.008 308.018,137.841 323.5,135C 339.224,130.266 355.224,129.266 371.5,132C 403.389,141.058 424.723,161.224 435.5,192.5 Z"/></g>
<g><path style="opacity:1" fill="#bf856f" d="M 489.5,136.5 C 489.087,133.585 487.421,131.752 484.5,131C 480.848,130.501 477.182,130.335 473.5,130.5C 478.956,125.138 485.622,123.138 493.5,124.5C 493.993,129.226 492.66,133.226 489.5,136.5 Z"/></g>
<g><path style="opacity:0.655" fill="#86a8d1" d="M 168.5,136.5 C 168.405,138.786 167.738,140.786 166.5,142.5C 166.259,140.102 166.926,138.102 168.5,136.5 Z"/></g>
<g><path style="opacity:0.341" fill="#88b2d6" d="M 178.5,140.5 C 178.25,142.674 177.25,144.341 175.5,145.5C 175.75,143.326 176.75,141.659 178.5,140.5 Z"/></g>
<g><path style="opacity:1" fill="#585193" d="M 488.5,154.5 C 487.405,159.784 485.739,164.784 483.5,169.5C 483.831,165.086 484.665,160.752 486,156.5C 486.417,155.244 487.25,154.577 488.5,154.5 Z"/></g>
<g><path style="opacity:1" fill="#5d4966" d="M 355.5,156.5 C 358.152,156.41 360.485,157.076 362.5,158.5C 359.848,158.59 357.515,157.924 355.5,156.5 Z"/></g>
<g><path style="opacity:1" fill="#f9d0ac" d="M 253.5,128.5 C 271.21,141.319 273.877,156.652 261.5,174.5C 260.163,175.315 259.163,176.482 258.5,178C 257.365,178.749 256.365,178.583 255.5,177.5C 251.502,170.17 247.002,163.17 242,156.5C 237.31,150.472 231.477,145.972 224.5,143C 214.62,141.26 208.453,145.094 206,154.5C 212.062,154.566 218.229,154.732 224.5,155C 226.246,155.471 227.913,156.138 229.5,157C 239.715,164.189 247.215,173.355 252,184.5C 241.64,195.097 229.14,201.597 214.5,204C 203.24,206.072 193.24,203.572 184.5,196.5C 180.719,190.869 177.553,184.869 175,178.5C 174.391,173.139 174.558,167.805 175.5,162.5C 175.343,161.127 175.51,159.793 176,158.5C 185.654,141.188 196.487,124.688 208.5,109C 225.195,111.683 240.195,118.183 253.5,128.5 Z"/></g>
<g><path style="opacity:1" fill="#b39498" d="M 216.5,130.5 C 223.093,129.539 229.093,130.872 234.5,134.5C 240.168,140.828 243.335,148.161 244,156.5C 238.102,140.731 226.936,133.564 210.5,135C 212.389,133.236 214.389,131.736 216.5,130.5 Z"/></g>
<g><path style="opacity:1" fill="#fad1ac" d="M 423.5,232.5 C 403.04,269.711 373.04,280.211 333.5,264C 310.846,249.86 300.513,229.36 302.5,202.5C 306.649,171.212 324.315,158.712 355.5,165C 374.849,168.115 392.849,174.782 409.5,185C 416.758,190.256 422.591,196.756 427,204.5C 427.893,207.433 428.393,210.433 428.5,213.5C 427.705,220.082 426.038,226.415 423.5,232.5 Z"/></g>
<g><path style="opacity:1" fill="#ddbdaf" d="M 287.5,186.5 C 288.622,188.052 289.122,189.718 289,191.5C 285.96,187.407 282.127,184.407 277.5,182.5C 275.076,182.808 272.743,182.474 270.5,181.5C 277.718,178.13 283.384,179.796 287.5,186.5 Z"/></g>
<g><path style="opacity:1" fill="#4f2852" d="M 173.5,166.5 C 173.5,173.167 173.5,179.833 173.5,186.5C 172.265,186.279 171.265,185.612 170.5,184.5C 169.5,182.5 168.5,180.5 167.5,178.5C 169.049,174.068 171.049,170.068 173.5,166.5 Z"/></g>
<g><path style="opacity:1" fill="#ab898b" d="M 175.5,162.5 C 174.558,167.805 174.391,173.139 175,178.5C 177.553,184.869 180.719,190.869 184.5,196.5C 179.532,194.529 175.865,191.196 173.5,186.5C 173.5,179.833 173.5,173.167 173.5,166.5C 173.157,164.517 173.824,163.183 175.5,162.5 Z"/></g>
<g><path style="opacity:1" fill="#0b0370" d="M 249.5,116.5 C 254.705,119.032 259.372,122.366 263.5,126.5C 270.235,134.304 276.235,142.637 281.5,151.5C 288.628,160.898 297.962,164.398 309.5,162C 324.387,156.187 339.72,154.354 355.5,156.5C 357.515,157.924 359.848,158.59 362.5,158.5C 373.196,160.899 383.529,164.399 393.5,169C 407.668,176.698 421.668,184.532 435.5,192.5C 440.163,195.857 445.497,198.024 451.5,199C 463.651,204.728 465.651,212.895 457.5,223.5C 452.334,226.109 447,228.109 441.5,229.5C 440.812,230.855 439.812,231.855 438.5,232.5C 433.91,235.086 429.91,238.42 426.5,242.5C 422.665,241.996 422.665,240.996 426.5,239.5C 425.135,237.249 425.469,235.249 427.5,233.5C 427.167,233.167 426.833,232.833 426.5,232.5C 425.12,234.977 424.12,234.977 423.5,232.5C 426.038,226.415 427.705,220.082 428.5,213.5C 428.393,210.433 427.893,207.433 427,204.5C 422.591,196.756 416.758,190.256 409.5,185C 392.849,174.782 374.849,168.115 355.5,165C 324.315,158.712 306.649,171.212 302.5,202.5C 301.834,205.689 301.167,209.023 300.5,212.5C 299.672,207.868 299.172,203.202 299,198.5C 298.374,196.009 297.541,196.009 296.5,198.5C 295.571,197.311 295.238,195.978 295.5,194.5C 292.754,194.072 291.087,192.406 290.5,189.5C 290.5,187.833 290.5,186.167 290.5,184.5C 289.735,185.612 288.735,186.279 287.5,186.5C 283.384,179.796 277.718,178.13 270.5,181.5C 272.743,182.474 275.076,182.808 277.5,182.5C 274.833,184.5 272.167,186.5 269.5,188.5C 267.5,188.5 265.5,188.5 263.5,188.5C 260.471,186.55 257.471,184.384 254.5,182C 257.121,181.061 259.788,180.228 262.5,179.5C 261.833,178.833 261.167,178.167 260.5,177.5C 261.127,176.583 261.461,175.583 261.5,174.5C 273.877,156.652 271.21,141.319 253.5,128.5C 253.5,127.167 253.5,125.833 253.5,124.5C 251.571,124.769 249.905,124.269 248.5,123C 249.489,120.77 248.822,118.936 246.5,117.5C 247.325,116.614 248.325,116.281 249.5,116.5 Z"/></g>
<g><path style="opacity:1" fill="#efaf64" d="M 263.5,188.5 C 265.5,188.5 267.5,188.5 269.5,188.5C 276.078,188.114 280.744,190.781 283.5,196.5C 275.469,191.748 267.136,191.248 258.5,195C 255.957,196.382 253.957,198.215 252.5,200.5C 251.833,200.5 251.167,200.5 250.5,200.5C 250.833,199.167 251.167,197.833 251.5,196.5C 255.364,193.653 259.364,190.986 263.5,188.5 Z"/></g>
<g><path style="opacity:1" fill="#723c4a" d="M 167.5,186.5 C 169.413,190.416 172.08,193.749 175.5,196.5C 175.5,197.167 175.5,197.833 175.5,198.5C 172.266,197.424 168.932,196.757 165.5,196.5C 164.931,192.671 165.598,189.337 167.5,186.5 Z"/></g>
<g><path style="opacity:1" fill="#a57f7b" d="M 251.5,196.5 C 251.167,197.833 250.833,199.167 250.5,200.5C 250.672,201.492 250.338,202.158 249.5,202.5C 249.025,199.918 249.692,197.918 251.5,196.5 Z"/></g>
<g><path style="opacity:1" fill="#fb8e11" d="M 283.5,196.5 C 285.615,202.063 288.281,207.396 291.5,212.5C 291.119,213.931 290.119,214.764 288.5,215C 274.083,215.922 262.083,211.089 252.5,200.5C 253.957,198.215 255.957,196.382 258.5,195C 267.136,191.248 275.469,191.748 283.5,196.5 Z"/></g>
<g><path style="opacity:0.584" fill="#90b6db" d="M 11.5,204.5 C 11.573,206.027 10.9063,207.027 9.5,207.5C 9.42702,205.973 10.0937,204.973 11.5,204.5 Z"/></g>
<g><path style="opacity:1" fill="#aa5f2a" d="M 250.5,200.5 C 251.167,200.5 251.833,200.5 252.5,200.5C 262.083,211.089 274.083,215.922 288.5,215C 290.119,214.764 291.119,213.931 291.5,212.5C 292.735,214.017 292.735,215.684 291.5,217.5C 288.988,219.858 285.988,220.858 282.5,220.5C 272.033,219.01 262.367,215.343 253.5,209.5C 251.711,207.39 250.378,205.056 249.5,202.5C 250.338,202.158 250.672,201.492 250.5,200.5 Z"/></g>
<g><path style="opacity:1" fill="#5c2b4f" d="M 471.5,202.5 C 471.802,206.79 471.136,210.79 469.5,214.5C 469.198,210.21 469.864,206.21 471.5,202.5 Z"/></g>
<g><path style="opacity:1" fill="#af919a" d="M 238.5,205.5 C 239.919,204.549 241.585,204.216 243.5,204.5C 243.351,205.552 243.517,206.552 244,207.5C 253.553,219.11 265.886,225.444 281,226.5C 286.54,226.984 291.54,225.65 296,222.5C 296.791,223.745 297.291,225.078 297.5,226.5C 296.883,226.389 296.383,226.056 296,225.5C 292.463,229.912 287.796,232.246 282,232.5C 266.883,230.913 253.883,224.913 243,214.5C 241.517,211.309 240.017,208.309 238.5,205.5 Z"/></g>
<g><path style="opacity:1" fill="#b09299" d="M 175.5,196.5 C 184.512,204.497 194.846,209.83 206.5,212.5C 201.578,212.11 201.244,213.277 205.5,216C 238.942,239.266 275.275,256.599 314.5,268C 321.474,271.153 328.474,274.319 335.5,277.5C 344.268,279.471 352.934,281.638 361.5,284C 368.535,284.677 375.535,285.511 382.5,286.5C 372.889,289.831 362.889,291.997 352.5,293C 339.486,293.661 326.486,293.494 313.5,292.5C 307.612,291.08 301.612,289.747 295.5,288.5C 293.056,286.928 290.39,285.428 287.5,284C 260.344,275.277 234.677,263.277 210.5,248C 208.35,246.351 206.35,244.518 204.5,242.5C 203.702,242.957 203.369,243.624 203.5,244.5C 198.843,232.181 193.343,220.181 187,208.5C 183.218,204.869 179.385,201.536 175.5,198.5C 175.5,197.833 175.5,197.167 175.5,196.5 Z"/></g>
<g><path style="opacity:0.551" fill="#b2d5ea" d="M 8.5,228.5 C 10.5918,231.088 11.9251,234.088 12.5,237.5C 9.82858,235.227 8.49525,232.227 8.5,228.5 Z"/></g>
<g><path style="opacity:1" fill="#090371" d="M 352.5,188.5 C 364.831,187.247 372.664,192.581 376,204.5C 377.406,218.219 373.573,230.219 364.5,240.5C 356.129,248.411 347.129,249.411 337.5,243.5C 335.501,241.507 334.001,239.173 333,236.5C 328.767,215.986 335.267,199.986 352.5,188.5 Z"/></g>
<g><path style="opacity:1" fill="#f4f5f6" d="M 353.5,208.5 C 358.331,207.667 360.664,209.667 360.5,214.5C 359.988,220.876 356.988,225.543 351.5,228.5C 349.971,228.471 348.804,227.804 348,226.5C 346.142,219.304 347.975,213.304 353.5,208.5 Z"/></g>
<g><path style="opacity:1" fill="#4b478c" d="M 13.5,240.5 C 14.7348,240.721 15.7348,241.388 16.5,242.5C 18.126,246.371 19.126,250.371 19.5,254.5C 16.9884,250.134 14.9884,245.467 13.5,240.5 Z"/></g>
<g><path style="opacity:1" fill="#f8cfac" d="M 238.5,205.5 C 240.017,208.309 241.517,211.309 243,214.5C 253.883,224.913 266.883,230.913 282,232.5C 287.796,232.246 292.463,229.912 296,225.5C 296.383,226.056 296.883,226.389 297.5,226.5C 302.175,247.993 314.175,263.827 333.5,274C 373.157,288.504 404.157,278.004 426.5,242.5C 429.91,238.42 433.91,235.086 438.5,232.5C 430.238,259.761 412.572,277.761 385.5,286.5C 384.5,286.5 383.5,286.5 382.5,286.5C 375.535,285.511 368.535,284.677 361.5,284C 352.934,281.638 344.268,279.471 335.5,277.5C 328.474,274.319 321.474,271.153 314.5,268C 275.275,256.599 238.942,239.266 205.5,216C 201.244,213.277 201.578,212.11 206.5,212.5C 217.701,212.523 228.367,210.19 238.5,205.5 Z"/></g>
<g><path style="opacity:1" fill="#ebc7ac" d="M 295.5,288.5 C 294.833,288.5 294.167,288.5 293.5,288.5C 278.348,284.727 263.681,279.393 249.5,272.5C 234.055,265.925 219.388,257.758 205.5,248C 204.177,247.184 203.511,246.017 203.5,244.5C 203.369,243.624 203.702,242.957 204.5,242.5C 206.35,244.518 208.35,246.351 210.5,248C 234.677,263.277 260.344,275.277 287.5,284C 290.39,285.428 293.056,286.928 295.5,288.5 Z"/></g>
<g><path style="opacity:1" fill="#5f3454" d="M 461.5,262.5 C 461.741,264.898 461.074,266.898 459.5,268.5C 459.259,266.102 459.926,264.102 461.5,262.5 Z"/></g>
<g><path style="opacity:0.435" fill="#aebbda" d="M 27.5,274.5 C 29.2927,276.426 30.2927,278.759 30.5,281.5C 28.7073,279.574 27.7073,277.241 27.5,274.5 Z"/></g>
<g><path style="opacity:1" fill="#793d45" d="M 457.5,272.5 C 457.662,274.527 457.495,276.527 457,278.5C 452.294,291.707 443.794,301.707 431.5,308.5C 431.38,307.414 430.713,306.747 429.5,306.5C 426.27,307.808 422.936,308.808 419.5,309.5C 402.147,309.841 385.147,310.841 368.5,312.5C 365.772,312.829 363.438,312.163 361.5,310.5C 363.288,310.785 364.955,310.452 366.5,309.5C 365.167,309.167 363.833,308.833 362.5,308.5C 360.667,308.585 359.334,309.252 358.5,310.5C 355.612,311.01 353.279,310.344 351.5,308.5C 352.978,308.762 354.311,308.429 355.5,307.5C 346.179,304.136 336.679,301.136 327,298.5C 325.319,298.608 324.152,299.275 323.5,300.5C 321.302,300.88 319.635,300.213 318.5,298.5C 319.978,298.762 321.311,298.429 322.5,297.5C 318.761,296.038 315.095,294.538 311.5,293C 312.094,292.536 312.761,292.369 313.5,292.5C 326.486,293.494 339.486,293.661 352.5,293C 362.889,291.997 372.889,289.831 382.5,286.5C 383.5,286.5 384.5,286.5 385.5,286.5C 399.849,286.833 414.182,286.499 428.5,285.5C 438.375,281.486 448.042,277.152 457.5,272.5 Z"/></g>
<g><path style="opacity:1" fill="#944d3d" d="M 293.5,288.5 C 294.167,288.5 294.833,288.5 295.5,288.5C 301.612,289.747 307.612,291.08 313.5,292.5C 312.761,292.369 312.094,292.536 311.5,293C 315.095,294.538 318.761,296.038 322.5,297.5C 321.311,298.429 319.978,298.762 318.5,298.5C 309.47,296.645 301.136,293.312 293.5,288.5 Z"/></g>
<g><path style="opacity:1" fill="#594b8c" d="M 221.5,286.5 C 223.592,289.088 224.925,292.088 225.5,295.5C 222.531,293.38 221.198,290.38 221.5,286.5 Z"/></g>
<g><path style="opacity:1" fill="#685e94" d="M 36.5,294.5 C 37.3094,295.469 38.3094,296.302 39.5,297C 39.1667,297.333 38.8333,297.667 38.5,298C 40.4117,301.236 41.4117,304.736 41.5,308.5C 39.0649,304.201 37.3982,299.534 36.5,294.5 Z"/></g>
<g><path style="opacity:1" fill="#a45238" d="M 351.5,308.5 C 341.975,306.531 332.641,303.864 323.5,300.5C 324.152,299.275 325.319,298.608 327,298.5C 336.679,301.136 346.179,304.136 355.5,307.5C 354.311,308.429 352.978,308.762 351.5,308.5 Z"/></g>
<g><path style="opacity:1" fill="#564b8e" d="M 226.5,298.5 C 228.162,302.456 229.829,306.456 231.5,310.5C 228.253,307.319 226.586,303.319 226.5,298.5 Z"/></g>
<g><path style="opacity:0.667" fill="#8988b4" d="M 325.5,308.5 C 327.898,308.259 329.898,308.926 331.5,310.5C 329.102,310.741 327.102,310.074 325.5,308.5 Z"/></g>
<g><path style="opacity:1" fill="#b5582b" d="M 361.5,310.5 C 360.5,310.5 359.5,310.5 358.5,310.5C 359.334,309.252 360.667,308.585 362.5,308.5C 363.833,308.833 365.167,309.167 366.5,309.5C 364.955,310.452 363.288,310.785 361.5,310.5 Z"/></g>
<g><path style="opacity:1" fill="#9b4e38" d="M 431.5,308.5 C 425.414,310.92 419.081,312.587 412.5,313.5C 397.76,315.016 383.093,314.683 368.5,312.5C 385.147,310.841 402.147,309.841 419.5,309.5C 422.936,308.808 426.27,307.808 429.5,306.5C 430.713,306.747 431.38,307.414 431.5,308.5 Z"/></g>
<g><path style="opacity:1" fill="#0e0873" d="M 167.5,186.5 C 165.598,189.337 164.931,192.671 165.5,196.5C 168.932,196.757 172.266,197.424 175.5,198.5C 179.385,201.536 183.218,204.869 187,208.5C 193.343,220.181 198.843,232.181 203.5,244.5C 203.511,246.017 204.177,247.184 205.5,248C 219.388,257.758 234.055,265.925 249.5,272.5C 249.33,273.822 249.663,274.989 250.5,276C 261.004,277.231 261.004,278.731 250.5,280.5C 236.47,275.32 223.47,268.32 211.5,259.5C 211.067,262.247 211.734,264.913 213.5,267.5C 213.077,269.781 213.744,271.448 215.5,272.5C 217.694,277.08 219.694,281.746 221.5,286.5C 221.198,290.38 222.531,293.38 225.5,295.5C 225.557,296.609 225.89,297.609 226.5,298.5C 226.586,303.319 228.253,307.319 231.5,310.5C 235.369,316.72 236.369,323.387 234.5,330.5C 267.495,331.333 300.495,331.833 333.5,332C 338.065,336.572 338.732,341.739 335.5,347.5C 334.292,348.234 332.959,348.567 331.5,348.5C 331.5,349.833 331.5,351.167 331.5,352.5C 329.507,354.163 327.174,355.33 324.5,356C 319,356.5 313.5,357 308,357.5C 286.513,356.562 265.013,356.229 243.5,356.5C 193.008,354.987 142.341,354.32 91.5,354.5C 86.1563,354.666 80.8229,354.499 75.5,354C 69.2669,350.699 66.2669,345.533 66.5,338.5C 64.1016,338.741 62.1016,338.074 60.5,336.5C 85.7488,336.545 110.915,336.545 136,336.5C 137.059,336.63 137.892,337.13 138.5,338C 116.836,338.5 95.1692,338.667 73.5,338.5C 73.2053,340.735 73.5386,342.735 74.5,344.5C 75.9616,345.458 77.2949,346.624 78.5,348C 127.166,348.5 175.832,348.667 224.5,348.5C 224.5,345.5 224.5,342.5 224.5,339.5C 225.087,338.233 225.087,337.233 224.5,336.5C 222.436,338.978 220.436,338.978 218.5,336.5C 217.833,337.167 217.167,337.833 216.5,338.5C 215.672,337.585 214.672,336.919 213.5,336.5C 207.541,337.414 201.541,337.747 195.5,337.5C 195.5,336.5 195.5,335.5 195.5,334.5C 204.167,334.5 212.833,334.5 221.5,334.5C 221.768,332.901 221.434,331.568 220.5,330.5C 215.158,317.087 209.824,303.754 204.5,290.5C 201.589,283.346 199.255,276.012 197.5,268.5C 198.675,268.281 199.675,268.614 200.5,269.5C 209.7,289.228 218.866,308.895 228,328.5C 228.937,323.597 228.27,318.93 226,314.5C 212.431,284.034 199.431,253.368 187,222.5C 182.525,210.687 174.025,204.187 161.5,203C 115.833,202.333 70.1667,202.333 24.5,203C 24.1667,203.333 23.8333,203.667 23.5,204C 32.8162,204.901 42.1495,205.568 51.5,206C 53.437,206.122 54.7703,206.955 55.5,208.5C 54.1667,209.167 52.8333,209.833 51.5,210.5C 46.1667,210.5 40.8333,210.5 35.5,210.5C 29.8465,211.055 24.1798,211.555 18.5,212C 15.5861,213.909 13.9194,216.575 13.5,220C 25.6499,249.129 37.6499,278.296 49.5,307.5C 50.4408,309.05 51.1075,310.716 51.5,312.5C 52.3056,317.016 53.639,321.35 55.5,325.5C 54.5,326.167 53.5,326.833 52.5,327.5C 54.0777,328.298 55.7444,328.798 57.5,329C 56.572,329.388 55.9054,330.055 55.5,331C 57.0826,332.735 58.4159,334.568 59.5,336.5C 56.2496,334.757 53.4162,332.423 51,329.5C 47.2899,322.746 44.1233,315.746 41.5,308.5C 41.4117,304.736 40.4117,301.236 38.5,298C 38.8333,297.667 39.1667,297.333 39.5,297C 38.3094,296.302 37.3094,295.469 36.5,294.5C 33.725,290.611 31.725,286.278 30.5,281.5C 30.2927,278.759 29.2927,276.426 27.5,274.5C 24.9065,267.954 22.2398,261.287 19.5,254.5C 19.126,250.371 18.126,246.371 16.5,242.5C 15.7348,241.388 14.7348,240.721 13.5,240.5C 13.4431,239.391 13.1098,238.391 12.5,237.5C 11.9251,234.088 10.5918,231.088 8.5,228.5C 6.0621,221.424 6.39543,214.424 9.5,207.5C 10.9063,207.027 11.573,206.027 11.5,204.5C 14.4772,199.673 18.8105,196.84 24.5,196C 68.8351,195.775 113.168,195.775 157.5,196C 159.155,194.556 159.822,192.722 159.5,190.5C 160.992,186.718 162.158,182.718 163,178.5C 163.684,179.784 163.517,180.951 162.5,182C 164.134,182.494 165.801,182.66 167.5,182.5C 167.5,183.833 167.5,185.167 167.5,186.5 Z"/></g>
<g><path style="opacity:1" fill="#2046d3" d="M 204.5,290.5 C 209.824,303.754 215.158,317.087 220.5,330.5C 195.009,331.833 169.175,332.5 143,332.5C 117.167,332.333 91.3333,332.167 65.5,332C 62.4384,330.939 59.9384,329.106 58,326.5C 56.0582,321.623 53.8915,316.956 51.5,312.5C 51.1075,310.716 50.4408,309.05 49.5,307.5C 60.1826,312.842 71.516,316.342 83.5,318C 102.136,319.555 120.802,319.888 139.5,319C 162.094,316.685 182.761,309.351 201.5,297C 203.919,295.491 204.919,293.325 204.5,290.5 Z"/></g>
<g><path style="opacity:1" fill="#6f679d" d="M 213.5,267.5 C 214.931,268.78 215.598,270.447 215.5,272.5C 213.744,271.448 213.077,269.781 213.5,267.5 Z"/></g>
<g><path style="opacity:1" fill="#97dff9" d="M 123.5,210.5 C 130.248,210.677 136.915,211.51 143.5,213C 140.381,214.405 137.048,214.905 133.5,214.5C 106.188,215.456 78.8546,215.79 51.5,215.5C 44.6787,214.671 37.6787,214.171 30.5,214C 30.1667,213.667 29.8333,213.333 29.5,213C 31.7226,212.434 33.7226,211.6 35.5,210.5C 40.8333,210.5 46.1667,210.5 51.5,210.5C 75.5036,209.253 99.5036,209.253 123.5,210.5 Z"/></g>
<g><path style="opacity:1" fill="#3873d0" d="M 55.5,208.5 C 75.5028,208.333 95.5028,208.5 115.5,209C 118.365,209.183 121.031,209.683 123.5,210.5C 99.5036,209.253 75.5036,209.253 51.5,210.5C 52.8333,209.833 54.1667,209.167 55.5,208.5 Z"/></g>
<g><path style="opacity:1" fill="#2e64fc" d="M 204.5,290.5 C 204.919,293.325 203.919,295.491 201.5,297C 182.761,309.351 162.094,316.685 139.5,319C 120.802,319.888 102.136,319.555 83.5,318C 71.516,316.342 60.1826,312.842 49.5,307.5C 37.6499,278.296 25.6499,249.129 13.5,220C 13.9194,216.575 15.5861,213.909 18.5,212C 24.1798,211.555 29.8465,211.055 35.5,210.5C 33.7226,211.6 31.7226,212.434 29.5,213C 29.8333,213.333 30.1667,213.667 30.5,214C 37.6787,214.171 44.6787,214.671 51.5,215.5C 77.9968,216.664 104.664,216.83 131.5,216C 132.416,215.722 133.082,215.222 133.5,214.5C 137.048,214.905 140.381,214.405 143.5,213C 136.915,211.51 130.248,210.677 123.5,210.5C 121.031,209.683 118.365,209.183 115.5,209C 95.5028,208.5 75.5028,208.333 55.5,208.5C 54.7703,206.955 53.437,206.122 51.5,206C 42.1495,205.568 32.8162,204.901 23.5,204C 23.8333,203.667 24.1667,203.333 24.5,203C 70.1667,202.333 115.833,202.333 161.5,203C 174.025,204.187 182.525,210.687 187,222.5C 199.431,253.368 212.431,284.034 226,314.5C 228.27,318.93 228.937,323.597 228,328.5C 218.866,308.895 209.7,289.228 200.5,269.5C 199.675,268.614 198.675,268.281 197.5,268.5C 199.255,276.012 201.589,283.346 204.5,290.5 Z"/></g>
<g><path style="opacity:1" fill="#2b69ce" d="M 133.5,214.5 C 133.082,215.222 132.416,215.722 131.5,216C 104.664,216.83 77.9968,216.664 51.5,215.5C 78.8546,215.79 106.188,215.456 133.5,214.5 Z"/></g>
<g><path style="opacity:1" fill="#05067a" d="M 152.5,204.5 C 165.354,203.426 175.021,208.426 181.5,219.5C 182.706,221.516 182.706,223.516 181.5,225.5C 174.552,215.69 165.219,209.356 153.5,206.5C 152.702,206.043 152.369,205.376 152.5,204.5 Z"/></g>
<g><path style="opacity:1" fill="#04057b" d="M 51.5,312.5 C 53.8915,316.956 56.0582,321.623 58,326.5C 59.9384,329.106 62.4384,330.939 65.5,332C 91.3333,332.167 117.167,332.333 143,332.5C 169.175,332.5 195.009,331.833 220.5,330.5C 221.434,331.568 221.768,332.901 221.5,334.5C 212.833,334.5 204.167,334.5 195.5,334.5C 195.5,335.5 195.5,336.5 195.5,337.5C 201.541,337.747 207.541,337.414 213.5,336.5C 214.672,336.919 215.672,337.585 216.5,338.5C 217.167,337.833 217.833,337.167 218.5,336.5C 220.436,338.978 222.436,338.978 224.5,336.5C 225.087,337.233 225.087,338.233 224.5,339.5C 175.5,339.5 126.5,339.5 77.5,339.5C 76.209,339.263 75.209,339.596 74.5,340.5C 74.5,341.833 74.5,343.167 74.5,344.5C 73.5386,342.735 73.2053,340.735 73.5,338.5C 95.1692,338.667 116.836,338.5 138.5,338C 137.892,337.13 137.059,336.63 136,336.5C 110.915,336.545 85.7488,336.545 60.5,336.5C 60.1667,336.5 59.8333,336.5 59.5,336.5C 58.4159,334.568 57.0826,332.735 55.5,331C 55.9054,330.055 56.572,329.388 57.5,329C 55.7444,328.798 54.0777,328.298 52.5,327.5C 53.5,326.833 54.5,326.167 55.5,325.5C 53.639,321.35 52.3056,317.016 51.5,312.5 Z"/></g>
<g><path style="opacity:1" fill="#2d65fa" d="M 74.5,340.5 C 75.209,339.596 76.209,339.263 77.5,339.5C 125.997,340.499 174.664,340.832 223.5,340.5C 223.5,341.5 223.5,342.5 223.5,343.5C 175.498,343.231 127.498,342.731 79.5,342C 77.8455,341.392 76.1789,340.892 74.5,340.5 Z"/></g>
<g><path style="opacity:1" fill="#2f63f9" d="M 307.5,338.5 C 314.655,339.329 321.989,339.829 329.5,340C 324.211,344.727 318.378,345.56 312,342.5C 298.906,344.324 285.74,344.991 272.5,344.5C 272.737,343.209 272.404,342.209 271.5,341.5C 266.695,340.513 261.695,340.179 256.5,340.5C 256.5,341.5 256.5,342.5 256.5,343.5C 254.924,344.075 253.258,344.408 251.5,344.5C 248.478,344.095 245.978,342.761 244,340.5C 240.292,343.626 236.125,344.293 231.5,342.5C 231.5,341.167 231.5,339.833 231.5,338.5C 256.833,338.5 282.167,338.5 307.5,338.5 Z"/></g>
<g><path style="opacity:1" fill="#2246d1" d="M 77.5,339.5 C 126.5,339.5 175.5,339.5 224.5,339.5C 224.5,342.5 224.5,345.5 224.5,348.5C 175.832,348.667 127.166,348.5 78.5,348C 77.2949,346.624 75.9616,345.458 74.5,344.5C 74.5,343.167 74.5,341.833 74.5,340.5C 76.1789,340.892 77.8455,341.392 79.5,342C 127.498,342.731 175.498,343.231 223.5,343.5C 223.5,342.5 223.5,341.5 223.5,340.5C 174.664,340.832 125.997,340.499 77.5,339.5 Z"/></g>
<g><path style="opacity:1" fill="#1d3bc3" d="M 307.5,338.5 C 315.167,338.5 322.833,338.5 330.5,338.5C 330.251,343.43 327.917,347.097 323.5,349.5C 294.16,350.778 264.826,350.611 235.5,349C 232.756,347.676 231.423,345.509 231.5,342.5C 236.125,344.293 240.292,343.626 244,340.5C 245.978,342.761 248.478,344.095 251.5,344.5C 253.258,344.408 254.924,344.075 256.5,343.5C 256.5,344.5 256.5,345.5 256.5,346.5C 261.5,346.5 266.5,346.5 271.5,346.5C 271.5,344.833 271.5,343.167 271.5,341.5C 272.404,342.209 272.737,343.209 272.5,344.5C 285.74,344.991 298.906,344.324 312,342.5C 318.378,345.56 324.211,344.727 329.5,340C 321.989,339.829 314.655,339.329 307.5,338.5 Z"/></g>
<g><path style="opacity:1" fill="#060678" d="M 271.5,341.5 C 271.5,343.167 271.5,344.833 271.5,346.5C 266.5,346.5 261.5,346.5 256.5,346.5C 256.5,345.5 256.5,344.5 256.5,343.5C 256.5,342.5 256.5,341.5 256.5,340.5C 261.695,340.179 266.695,340.513 271.5,341.5 Z"/></g>
<g><path style="opacity:1" fill="#8378a7" d="M 335.5,347.5 C 334.92,349.749 333.587,351.415 331.5,352.5C 331.5,351.167 331.5,349.833 331.5,348.5C 332.959,348.567 334.292,348.234 335.5,347.5 Z"/></g>
<g><path style="opacity:0.667" fill="#908cc5" d="M 91.5,354.5 C 142.341,354.32 193.008,354.987 243.5,356.5C 192.66,356.58 141.994,355.914 91.5,354.5 Z"/></g>
</svg>
